<svg xmlns="http://www.w3.org/2000/svg" viewBox="0 0 512 512">
  <defs>
    <linearGradient id="g" x1="64" x2="448" y1="448" y2="64" gradientUnits="userSpaceOnUse">
      <stop stop-color="#11100f"/>
      <stop offset=".48" stop-color="#b6805d"/>
      <stop offset="1" stop-color="#f4dfcf"/>
    </linearGradient>
  </defs>
  <rect width="512" height="512" rx="104" fill="#fbfaf8"/>
  <rect x="42" y="42" width="428" height="428" rx="82" fill="none" stroke="url(#g)" stroke-width="18"/>
  <path fill="#181818" d="M117 350V162h38l54 113 54-113h38v188h-33V230l-45 92h-28l-45-92v120h-33Zm220 0V162h122v31h-87v47h76v30h-76v49h90v31H337Z"/>
  <path fill="#b6805d" d="M256 92c33 30 52 56 52 81 0 26-20 46-52 46s-52-20-52-46c0-25 19-51 52-81Z"/>
</svg>
